<svg xmlns="http://www.w3.org/2000/svg" width="200" height="200" viewBox="0 0 200 200"><style type="text/css">.st0{display:none;fill:#447759;} .st1{fill:#FFFFFF;}</style><circle class="st0" cx="99.8" cy="100" r="80"/><path class="st1" d="M99.8 0c-55.2 0-100 44.8-100 100s44.8 100 100 100 100-44.8 100-100c-.1-55.2-44.8-100-100-100zm30.8 53.8c-1.9-1-4.2-1.9-6.8-2.6-2.6-.7-5.1-1.1-7.2-1.1-9 0-13.5 6-13.5 18.1v13.8h25v20h-25v69h-26.1v-69h-13v-20h13v-12.8c0-12.6 3.1-22.6 9.2-29.9 6.1-7.3 14.3-11 24.6-11 8.2 0 16.5 2 24.9 6l-5.1 19.5z"/></svg>