<svg xmlns="http://www.w3.org/2000/svg" width="200" height="200" viewBox="0 0 200 200"><style type="text/css">.st0{fill:#FFFFFF;} .st1{fill:none;stroke:#FFFFFF;stroke-width:9;stroke-miterlimit:10;}</style><path class="st0" d="M99.8 0c-55.2 0-100 44.8-100 100s44.8 100 100 100 100-44.8 100-100c-.1-55.2-44.8-100-100-100zm67.2 139.6c0 13.5-10.9 24.4-24.4 24.4h-85.2c-13.5 0-24.4-10.9-24.4-24.4v-80.2c0-13.5 10.9-24.4 24.4-24.4h85.1c13.5 0 24.4 10.9 24.4 24.4v80.2zM150 68.1h-14.9c-2.3 0-4.3-1.9-4.3-4.3v-14c0-2.3 1.9-4.3 4.3-4.3h14.9c2.3 0 4.3 1.9 4.3 4.3v14c-.1 2.4-2 4.3-4.3 4.3zM26.4 78.7h150.3v6.5h-150.3z"/><circle class="st1" cx="108" cy="99.2" r="31.1"/></svg>