<?xml version="1.0" encoding="utf-8"?>
<!-- Generator: Adobe Illustrator 18.1.1, SVG Export Plug-In . SVG Version: 6.00 Build 0)  -->
<svg version="1.1" id="Layer_1" xmlns="http://www.w3.org/2000/svg" xmlns:xlink="http://www.w3.org/1999/xlink" x="0px" y="0px"
	 width="200px" height="200px" viewBox="0 0 200 200" style="enable-background:new 0 0 200 200;" xml:space="preserve">
<style type="text/css">
	.st0{fill:#FFFFFF;}
	.st1{fill:none;stroke:#FFFFFF;stroke-width:9;stroke-miterlimit:10;}
</style>
<path class="st0" d="M99.8,0C44.6,0-0.2,44.8-0.2,100c0,55.2,44.8,100,100,100c55.2,0,100-44.8,100-100C199.7,44.8,155,0,99.8,0z
	 M167,139.6c0,13.5-10.9,24.4-24.4,24.4H57.4C43.9,164,33,153.1,33,139.6V59.4C33,45.9,43.9,35,57.4,35h85.1
	c13.5,0,24.4,10.9,24.4,24.4V139.6z"/>
<path class="st0" d="M150,68.1h-14.9c-2.3,0-4.3-1.9-4.3-4.3v-14c0-2.3,1.9-4.3,4.3-4.3H150c2.3,0,4.3,1.9,4.3,4.3v14
	C154.2,66.2,152.3,68.1,150,68.1z"/>
<rect x="26.4" y="78.7" class="st0" width="150.3" height="6.5"/>
<circle class="st1" cx="108" cy="99.2" r="31.1"/>
<g>
</g>
<g>
</g>
<g>
</g>
<g>
</g>
<g>
</g>
<g>
</g>
<g>
</g>
<g>
</g>
<g>
</g>
<g>
</g>
<g>
</g>
<g>
</g>
<g>
</g>
<g>
</g>
<g>
</g>
</svg>
