<svg xmlns="http://www.w3.org/2000/svg" width="304.6" height="378.5" viewBox="0 0 304.6 378.5"><style type="text/css">.st0{fill:#544233;} .st1{fill:#544133;}</style><path class="st0" d="M70.9 121s-33.5 25-35.5 23v-5.1s-62.5-86.4-21.5-117.9l103 53s12.5 3.5 7 7.5-33 23.5-32 25.5 166 239 170.5 239.5 10.5-11 15.5-8 10.5 11.5-5.5 21-25 21-32 12.5l5.5-17-175-234zM55.9 360s11.5 5 11 9-3 9-5.5 9.5-41-24-41-27.5 4.5-6.5 8-6.5 9 6.5 11.5 5 167-237.5 166-244.5-27-12-26.5-23.5 81.5 44.2 80.5 46c-6 11.4-12.3 5.6-34.5-10-19 15.5-169.5 242.5-169.5 242.5z"/><path class="st1" d="M179.3 81.7s.1-.4.2-1.1c0-.3.2-.9.4-1.6.1-.3.2-.7.3-1.1.1-.3.2-.7.4-1l.4-1.1.5-1.2c.3-.8.8-1.6 1.2-2.5.9-1.8 1.9-3.7 3.1-5.7 4.8-8.2 11.8-18.2 19.1-28.1 7.3-9.9 14.8-19.5 20.5-26.8 2.8-3.6 5.2-6.6 6.8-8.7 1.6-2.1 2.5-3.3 2.5-3.3.4-.5 1.1-.6 1.6-.2.5.4.6 1.1.3 1.6 0 0-.8 1.3-2.3 3.5-1.5 2.2-3.6 5.4-6.2 9.2-5.1 7.6-12 17.7-18.5 28-6.6 10.3-12.8 20.7-16.8 28.7-1 2-1.8 3.8-2.5 5.4-.3.8-.6 1.6-.9 2.3-.1.3-.2.7-.4 1l-.3.9c-.1.3-.2.5-.2.8 0 .2-.1.4-.1.5-.1.3-.2.5-.2 1-.1.7-.1 1.1-.1 1.1-.3 2.5-2.5 4.2-5 3.9-2.5-.3-4.2-2.5-3.9-5 .1-.3.1-.4.1-.5zM251.5 125l.9-.6c.4-.2.5-.4.8-.6l.4-.3.6-.6c.2-.2.4-.4.7-.6.2-.2.5-.5.7-.8.5-.5 1-1.1 1.6-1.8 1.2-1.3 2.4-2.9 3.8-4.7 5.4-7.1 11.9-17.4 18.2-27.8 6.3-10.5 12.3-21.1 16.8-29.1 2.3-4 4.2-7.3 5.5-9.6 1.3-2.3 2.1-3.6 2.1-3.6.3-.6 1-.7 1.6-.4.5.3.7 1 .5 1.5 0 0-.7 1.4-1.8 3.8-1.2 2.4-2.8 5.9-4.8 10-4 8.3-9.3 19.3-14.8 30.3-5.6 10.9-11.5 21.8-16.7 29.7-1.3 2-2.5 3.8-3.7 5.3-.6.8-1.2 1.5-1.7 2.2-.3.3-.6.7-.8 1-.3.3-.6.6-.8.9-.3.3-.5.5-.7.8-.3.3-.6.5-.8.8-.5.5-1 .9-1.3 1.1-.6.4-.9.7-.9.7-2 1.5-4.8 1.1-6.3-.8-1.5-2-1.1-4.8.8-6.3-.1-.3 0-.4.1-.5zM202.5 94.6l.6-.9c.4-.6 1.1-1.4 1.8-2.5.8-1.1 1.7-2.4 2.7-3.9l3.5-5.1c5.1-7.6 12-17.7 18.8-27.8 6.9-10.1 13.7-20.2 19-27.8 2.6-3.8 4.9-6.9 6.4-9.1 1.6-2.2 2.5-3.4 2.5-3.4.4-.5 1.1-.6 1.6-.2.5.4.6 1 .3 1.6 0 0-.8 1.3-2.2 3.5-1.4 2.3-3.4 5.5-5.8 9.4-4.7 7.8-10.9 18.4-17 29-6.2 10.6-12.3 21.1-16.9 29.1-1.2 2-2.2 3.8-3.2 5.4-1 1.6-1.8 3-2.5 4.2-.7 1.2-1.3 2-1.6 2.7l-.6.9c-1.3 2.1-4.1 2.8-6.2 1.4-2.1-1.3-2.8-4.1-1.4-6.2.1-.1.2-.2.2-.3zM228.9 111.5l.6-.9c.4-.6 1.1-1.4 1.8-2.5.8-1.1 1.7-2.4 2.7-3.9l3.5-5.1c5.1-7.6 12-17.7 18.8-27.8 6.9-10.1 13.7-20.2 19-27.8 2.6-3.8 4.9-6.9 6.4-9.1 1.6-2.2 2.5-3.4 2.5-3.4.4-.5 1.1-.6 1.6-.2.5.4.6 1 .3 1.6 0 0-.8 1.3-2.2 3.5-1.4 2.3-3.4 5.5-5.8 9.4-4.7 7.8-10.9 18.4-17 29-6.2 10.6-12.3 21.1-16.9 29.1-1.2 2-2.2 3.8-3.2 5.4-1 1.6-1.8 3-2.5 4.2-.7 1.2-1.3 2-1.6 2.7l-.6.9c-1.3 2.1-4.1 2.8-6.2 1.4-2.1-1.3-2.8-4.1-1.4-6.2 0-.1.1-.2.2-.3z"/></svg>