<?xml version="1.0" encoding="utf-8"?>
<!-- Generator: Adobe Illustrator 18.1.1, SVG Export Plug-In . SVG Version: 6.00 Build 0)  -->
<svg version="1.1" id="Layer_2" xmlns="http://www.w3.org/2000/svg" xmlns:xlink="http://www.w3.org/1999/xlink" x="0px" y="0px"
	 width="304.6px" height="378.5px" viewBox="0 0 304.6 378.5" style="enable-background:new 0 0 304.6 378.5;" xml:space="preserve"
	>
<style type="text/css">
	.st0{fill:#544233;}
	.st1{fill:#544133;}
</style>
<path class="st0" d="M70.9,121c0,0-33.5,25-35.5,23s0-5.1,0-5.1S-27.1,52.5,13.9,21s103,53,103,53s12.5,3.5,7,7.5s-33,23.5-32,25.5
	s166,239,170.5,239.5s10.5-11,15.5-8s10.5,11.5-5.5,21s-25,21-32,12.5s5.5-17,5.5-17L70.9,121z"/>
<path class="st0" d="M55.9,360c0,0,11.5,5,11,9s-3,9-5.5,9.5c-2.5,0.5-41-24-41-27.5s4.5-6.5,8-6.5s9,6.5,11.5,5
	s167-237.5,166-244.5s-27-12-26.5-23.5s81.5,44.2,80.5,46c-6,11.4-12.3,5.6-34.5-10C206.4,133,55.9,360,55.9,360z"/>
<g>
	<path class="st1" d="M179.3,81.7c0,0,0.1-0.4,0.2-1.1c0-0.3,0.2-0.9,0.4-1.6c0.1-0.3,0.2-0.7,0.3-1.1c0.1-0.3,0.2-0.7,0.4-1
		c0.1-0.4,0.3-0.7,0.4-1.1c0.2-0.4,0.3-0.8,0.5-1.2c0.3-0.8,0.8-1.6,1.2-2.5c0.9-1.8,1.9-3.7,3.1-5.7c4.8-8.2,11.8-18.2,19.1-28.1
		c7.3-9.9,14.8-19.5,20.5-26.8c2.8-3.6,5.2-6.6,6.8-8.7c1.6-2.1,2.5-3.3,2.5-3.3l0,0c0.4-0.5,1.1-0.6,1.6-0.2
		c0.5,0.4,0.6,1.1,0.3,1.6c0,0-0.8,1.3-2.3,3.5c-1.5,2.2-3.6,5.4-6.2,9.2c-5.1,7.6-12,17.7-18.5,28c-6.6,10.3-12.8,20.7-16.8,28.7
		c-1,2-1.8,3.8-2.5,5.4c-0.3,0.8-0.6,1.6-0.9,2.3c-0.1,0.3-0.2,0.7-0.4,1c-0.1,0.3-0.2,0.6-0.3,0.9c-0.1,0.3-0.2,0.5-0.2,0.8
		c0,0.2-0.1,0.4-0.1,0.5c-0.1,0.3-0.2,0.5-0.2,1c-0.1,0.7-0.1,1.1-0.1,1.1l0,0c-0.3,2.5-2.5,4.2-5,3.9c-2.5-0.3-4.2-2.5-3.9-5
		C179.3,81.9,179.3,81.8,179.3,81.7z"/>
</g>
<g>
	<path class="st1" d="M251.5,125c0,0,0.3-0.2,0.9-0.6c0.4-0.2,0.5-0.4,0.8-0.6c0.1-0.1,0.3-0.2,0.4-0.3c0.2-0.2,0.4-0.4,0.6-0.6
		c0.2-0.2,0.4-0.4,0.7-0.6c0.2-0.2,0.5-0.5,0.7-0.8c0.5-0.5,1-1.1,1.6-1.8c1.2-1.3,2.4-2.9,3.8-4.7c5.4-7.1,11.9-17.4,18.2-27.8
		c6.3-10.5,12.3-21.1,16.8-29.1c2.3-4,4.2-7.3,5.5-9.6c1.3-2.3,2.1-3.6,2.1-3.6c0.3-0.6,1-0.7,1.6-0.4c0.5,0.3,0.7,1,0.5,1.5l0,0
		c0,0-0.7,1.4-1.8,3.8c-1.2,2.4-2.8,5.9-4.8,10c-4,8.3-9.3,19.3-14.8,30.3c-5.6,10.9-11.5,21.8-16.7,29.7c-1.3,2-2.5,3.8-3.7,5.3
		c-0.6,0.8-1.2,1.5-1.7,2.2c-0.3,0.3-0.6,0.7-0.8,1c-0.3,0.3-0.6,0.6-0.8,0.9c-0.3,0.3-0.5,0.5-0.7,0.8c-0.3,0.3-0.6,0.5-0.8,0.8
		c-0.5,0.5-1,0.9-1.3,1.1c-0.6,0.4-0.9,0.7-0.9,0.7c-2,1.5-4.8,1.1-6.3-0.8c-1.5-2-1.1-4.8,0.8-6.3
		C251.3,125.2,251.4,125.1,251.5,125L251.5,125z"/>
</g>
<g>
	<path class="st1" d="M202.5,94.6c0,0,0.2-0.3,0.6-0.9c0.4-0.6,1.1-1.4,1.8-2.5c0.8-1.1,1.7-2.4,2.7-3.9c1.1-1.5,2.2-3.3,3.5-5.1
		c5.1-7.6,12-17.7,18.8-27.8c6.9-10.1,13.7-20.2,19-27.8c2.6-3.8,4.9-6.9,6.4-9.1c1.6-2.2,2.5-3.4,2.5-3.4c0.4-0.5,1.1-0.6,1.6-0.2
		c0.5,0.4,0.6,1,0.3,1.6l0,0c0,0-0.8,1.3-2.2,3.5c-1.4,2.3-3.4,5.5-5.8,9.4c-4.7,7.8-10.9,18.4-17,29c-6.2,10.6-12.3,21.1-16.9,29.1
		c-1.2,2-2.2,3.8-3.2,5.4c-1,1.6-1.8,3-2.5,4.2c-0.7,1.2-1.3,2-1.6,2.7c-0.4,0.6-0.6,0.9-0.6,0.9c-1.3,2.1-4.1,2.8-6.2,1.4
		c-2.1-1.3-2.8-4.1-1.4-6.2C202.4,94.8,202.5,94.7,202.5,94.6L202.5,94.6z"/>
</g>
<g>
	<path class="st1" d="M228.9,111.5c0,0,0.2-0.3,0.6-0.9c0.4-0.6,1.1-1.4,1.8-2.5c0.8-1.1,1.7-2.4,2.7-3.9c1.1-1.5,2.2-3.3,3.5-5.1
		c5.1-7.6,12-17.7,18.8-27.8c6.9-10.1,13.7-20.2,19-27.8c2.6-3.8,4.9-6.9,6.4-9.1c1.6-2.2,2.5-3.4,2.5-3.4c0.4-0.5,1.1-0.6,1.6-0.2
		c0.5,0.4,0.6,1,0.3,1.6l0,0c0,0-0.8,1.3-2.2,3.5c-1.4,2.3-3.4,5.5-5.8,9.4c-4.7,7.8-10.9,18.4-17,29c-6.2,10.6-12.3,21.1-16.9,29.1
		c-1.2,2-2.2,3.8-3.2,5.4c-1,1.6-1.8,3-2.5,4.2c-0.7,1.2-1.3,2-1.6,2.7c-0.4,0.6-0.6,0.9-0.6,0.9c-1.3,2.1-4.1,2.8-6.2,1.4
		c-2.1-1.3-2.8-4.1-1.4-6.2C228.7,111.7,228.8,111.6,228.9,111.5L228.9,111.5z"/>
</g>
</svg>
